<svg width="250" height="55" viewBox="0 0 250 55" fill="none" xmlns="http://www.w3.org/2000/svg">
<g clip-path="url(#clip0_219_1115)">
<g clip-path="url(#clip1_219_1115)">
<path d="M7.91305 47.6056L19.029 29.8222C19.4058 29.9445 19.8454 30.0667 20.3478 30.0667C21.4155 30.0667 22.3575 29.6389 23.0483 28.9667L30.0821 33.6111C29.7681 34.2222 29.7053 34.9556 29.8309 35.6278C30.0821 37.1556 31.3382 38.3778 32.9082 38.6222C33.0966 38.6222 33.285 38.6833 33.4734 38.6833C34.5411 38.6833 35.6087 38.1945 36.2995 37.4C36.9903 36.6056 37.3044 35.5056 37.1788 34.4667C37.116 33.9167 36.8647 33.3667 36.4879 32.8778L45.4686 19.0667C45.657 19.1278 45.8454 19.1889 46.0338 19.1889C46.2222 19.1889 46.4106 19.25 46.599 19.25C47.6667 19.25 48.7343 18.7611 49.4251 17.9667C50.1159 17.1722 50.43 16.0722 50.3044 15.0333C50.0531 13.5056 48.7971 12.2833 47.2271 12.0389C45.971 11.8556 44.6522 12.2833 43.8358 13.2611C43.1449 14.0556 42.8309 15.1556 42.9565 16.1945C43.0821 16.9278 43.3961 17.6 43.8986 18.0889L34.9807 31.7167C34.6667 31.5945 34.3527 31.4722 34.0387 31.4111C33.0338 31.2889 32.029 31.5333 31.2126 32.0833L23.9275 27.2556C23.9903 26.95 24.0532 26.7056 24.0532 26.4C24.0532 24.3833 22.3575 22.7945 20.3478 22.7945C18.3382 22.7945 16.6425 24.4445 16.6425 26.4C16.6425 27.3167 16.9565 28.1111 17.5217 28.7222L7.53624 44.7333V4.58334H3.76813V51.2722H51.8116V47.6056H7.91305ZM47.9179 16.8056C47.4783 17.2945 46.8503 17.4778 46.2222 17.4167C45.4686 17.2945 44.8406 16.6833 44.715 15.95C44.6522 15.7056 44.715 15.4611 44.715 15.2778C44.7778 14.9722 44.9034 14.7278 45.0918 14.5445C45.343 14.2389 45.657 14.0556 46.0338 13.9945C46.1594 13.9333 46.3478 13.9333 46.4734 13.9333C46.599 13.9333 46.6618 13.9333 46.7874 13.9333C46.8503 13.9333 46.9131 13.9333 46.9759 13.9945C47.6667 14.1778 48.1691 14.7278 48.2947 15.4C48.4203 15.8889 48.2947 16.4389 47.9179 16.8056ZM33.7246 33.2445C33.7874 33.2445 33.8503 33.2445 33.9131 33.3056C34.6039 33.4889 35.1063 34.0389 35.2319 34.7111C35.2947 35.2611 35.1691 35.75 34.7923 36.1778C34.3527 36.6667 33.7246 36.85 33.0966 36.7889C32.343 36.6667 31.715 36.0556 31.5894 35.3222C31.5266 35.0778 31.5894 34.8333 31.5894 34.65C31.6522 34.3445 31.7778 34.1 31.9662 33.9167C32.2174 33.6111 32.5314 33.4278 32.9082 33.3667C33.0338 33.3056 33.2222 33.3056 33.3478 33.3056C33.5362 33.2445 33.599 33.2445 33.7246 33.2445ZM18.4638 26.4C18.4638 25.4222 19.2802 24.6278 20.285 24.6278C21.1643 24.6278 21.9179 25.2389 22.1063 26.0945C22.1063 26.2167 22.1691 26.2778 22.1691 26.4C22.1691 27.0111 21.8551 27.5 21.4155 27.8056C21.1015 28.05 20.7246 28.1722 20.3478 28.1722C20.285 28.1722 20.1594 28.1722 20.0966 28.1722C19.4058 28.05 18.8406 27.6222 18.6522 27.0111C18.5266 26.8278 18.4638 26.6445 18.4638 26.4Z" fill="#40513B"/>
</g>
<g clip-path="url(#clip2_219_1115)">
<path d="M73.913 20.0662H80.5429L80.7599 23.0332C82.6479 20.7385 85.1762 19.5911 88.3446 19.5911C91.1369 19.5911 93.2166 20.39 94.5838 21.9879C95.9438 23.5858 96.6418 25.972 96.678 29.1467V45.7238H89.6358V29.3156C89.6358 27.8585 89.3103 26.8026 88.6593 26.148C88.0082 25.4934 86.9268 25.1661 85.4149 25.1661C83.4328 25.1661 81.9462 25.9861 80.9552 27.6262V45.7238H73.913V20.0662ZM114.148 46.1989C110.285 46.1989 107.138 45.0445 104.708 42.7357C102.277 40.4268 101.062 37.3507 101.062 33.5074V32.8528C101.062 30.2694 101.575 27.9641 102.603 25.9368C103.623 23.9025 105.073 22.3363 106.954 21.2382C108.827 20.1401 110.965 19.5911 113.367 19.5911C116.976 19.5911 119.816 20.6962 121.884 22.9065C123.961 25.1238 124.999 28.2633 124.999 32.3248V35.1229H108.202C108.433 36.7982 109.12 38.1426 110.263 39.1563C111.406 40.1699 112.857 40.6767 114.614 40.6767C117.327 40.6767 119.447 39.7194 120.973 37.8048L124.434 41.5742C123.378 43.0313 121.949 44.1646 120.148 44.9741C118.347 45.7906 116.347 46.1989 114.148 46.1989ZM113.345 25.1449C111.949 25.1449 110.817 25.6025 109.949 26.5176C109.08 27.4327 108.523 28.7454 108.277 30.4559H118.076V29.9069C118.04 28.3864 117.616 27.2109 116.806 26.3803C115.996 25.5567 114.842 25.1449 113.345 25.1449ZM144.986 45.7238L144.79 43.1158C143.047 45.1712 140.642 46.1989 137.575 46.1989C134.746 46.1989 132.587 45.407 131.097 43.8232C129.614 42.2464 128.854 39.9306 128.818 36.8756V20.0662H135.871V36.6433C135.871 39.3182 137.119 40.6556 139.615 40.6556C142.009 40.6556 143.651 39.8461 144.541 38.2271V20.0662H151.616V45.7238H144.986ZM167.892 40.6767C169.194 40.6767 170.25 40.3283 171.06 39.6314C171.87 38.9345 172.294 38.0089 172.33 36.8545H178.927C178.913 38.5931 178.428 40.1875 177.473 41.6376C176.511 43.0806 175.198 44.2033 173.534 45.0058C171.87 45.8012 170.029 46.1989 168.011 46.1989C164.242 46.1989 161.269 45.0339 159.092 42.704C156.914 40.367 155.826 37.1466 155.826 33.0428V32.5888C155.826 28.6328 156.907 25.4793 159.07 23.1282C161.233 20.7701 164.199 19.5911 167.968 19.5911C171.266 19.5911 173.91 20.5027 175.9 22.3258C177.889 24.1559 178.898 26.588 178.927 29.6218H172.33C172.294 28.2914 171.87 27.2109 171.06 26.3803C170.25 25.5567 169.176 25.1449 167.837 25.1449C166.203 25.1449 164.966 25.7257 164.127 26.8871C163.287 28.0486 162.868 29.9315 162.868 32.536V33.254C162.868 35.8937 163.284 37.7907 164.116 38.9451C164.94 40.0995 166.199 40.6767 167.892 40.6767ZM205.349 45.7238H198.231C197.905 45.1114 197.67 44.3441 197.525 43.422C195.818 45.2733 193.601 46.1989 190.874 46.1989C188.291 46.1989 186.15 45.4704 184.45 44.0133C182.75 42.5632 181.9 40.7295 181.9 38.5122C181.9 35.7951 182.938 33.708 185.014 32.2509C187.083 30.8009 190.078 30.0688 193.999 30.0547H197.232V28.5765C197.232 27.3939 196.921 26.4472 196.299 25.7362C195.67 25.0253 194.682 24.6698 193.337 24.6698C192.15 24.6698 191.221 24.9443 190.548 25.4934C189.868 26.0495 189.528 26.8097 189.528 27.774H182.486C182.486 26.2888 182.96 24.9127 183.908 23.6456C184.848 22.3786 186.179 21.3861 187.901 20.6681C189.622 19.9501 191.557 19.5911 193.706 19.5911C196.954 19.5911 199.533 20.3865 201.442 21.9773C203.352 23.5611 204.307 25.7925 204.307 28.6715V39.8004C204.321 42.2359 204.669 44.0766 205.349 45.3225V45.7238ZM192.415 40.9618C193.449 40.9618 194.407 40.7366 195.29 40.2861C196.165 39.8356 196.813 39.2302 197.232 38.47V34.0564H194.606C191.076 34.0564 189.199 35.2425 188.975 37.6147L188.953 38.0159C188.953 38.8677 189.261 39.5716 189.875 40.1277C190.49 40.6838 191.337 40.9618 192.415 40.9618ZM218.706 45.7238H211.642V25.0921H207.714V20.0662H211.642V17.8806C211.642 15.0016 212.488 12.7702 214.181 11.1864C215.881 9.59556 218.257 8.80014 221.31 8.80014C222.287 8.80014 223.484 8.95852 224.902 9.27528L224.826 14.5863C224.24 14.4455 223.524 14.3751 222.677 14.3751C220.03 14.3751 218.706 15.5823 218.706 17.9967V20.0662H223.947V25.0921H218.706V45.7238ZM239.16 46.1989C235.29 46.1989 232.139 45.0445 229.709 42.7357C227.278 40.4268 226.063 37.3507 226.063 33.5074V32.8528C226.063 30.2694 226.576 27.9641 227.604 25.9368C228.624 23.9025 230.074 22.3363 231.955 21.2382C233.828 20.1401 235.97 19.5911 238.378 19.5911C241.981 19.5911 244.82 20.6962 246.896 22.9065C248.965 25.1238 250 28.2633 250 32.3248V35.1229H233.203C233.434 36.7982 234.121 38.1426 235.264 39.1563C236.414 40.1699 237.865 40.6767 239.615 40.6767C242.328 40.6767 244.448 39.7194 245.974 37.8048L249.435 41.5742C248.379 43.0313 246.951 44.1646 245.149 44.9741C243.348 45.7906 241.352 46.1989 239.16 46.1989ZM238.346 25.1449C236.95 25.1449 235.818 25.6025 234.95 26.5176C234.082 27.4327 233.525 28.7454 233.279 30.4559H243.077V29.9069C243.048 28.3864 242.625 27.2109 241.807 26.3803C240.997 25.5567 239.843 25.1449 238.346 25.1449Z" fill="#40513B"/>
</g>
</g>
<defs>
<clipPath id="clip0_219_1115">
<rect width="250" height="55" fill="white"/>
</clipPath>
<clipPath id="clip1_219_1115">
<rect width="56.5217" height="55" fill="white"/>
</clipPath>
<clipPath id="clip2_219_1115">
<rect width="176.087" height="37.3997" fill="white" transform="translate(73.913 8.80014)"/>
</clipPath>
</defs>
</svg>
